<svg width="36" height="36" viewBox="0 0 36 36" fill="none" xmlns="http://www.w3.org/2000/svg">
<path d="M0 8C0 3.58172 3.58172 0 8 0H28C32.4183 0 36 3.58172 36 8V28C36 32.4183 32.4183 36 28 36H8C3.58172 36 0 32.4183 0 28V8Z" fill="#EA580C"/>
<path d="M14.5521 7.65277C14.4094 7.72409 14.3194 7.86986 14.3194 8.02931V16.124C14.3194 16.2482 14.1895 16.3296 14.0777 16.2756L11.2689 14.9186C11.153 14.8626 11.0178 14.8627 10.902 14.9189L5.35509 17.6109C5.21003 17.6813 5.11792 17.8284 5.11792 17.9897V24.5539C5.11792 24.7152 5.21007 24.8623 5.35519 24.9327L10.9021 27.623C11.0178 27.6792 11.153 27.6793 11.2688 27.6233L16.8418 24.9325C16.9873 24.8622 17.0798 24.7149 17.0798 24.5534V6.66138C17.0798 6.5362 16.948 6.45478 16.8361 6.51077L14.5521 7.65277ZM8.11557 23.2029C7.97048 23.1325 7.87835 22.9854 7.87835 22.8242V19.7177C7.87835 19.5564 7.97048 19.4093 8.11557 19.3389L10.9047 17.9857C11.0205 17.9295 11.1557 17.9294 11.2716 17.9854L14.0815 19.3427C14.2269 19.4129 14.3194 19.5602 14.3194 19.7218V22.8201C14.3194 22.9816 14.2269 23.1289 14.0815 23.1992L11.2716 24.5564C11.1557 24.6124 11.0205 24.6123 10.9047 24.5561L8.11557 23.2029Z" fill="white"/>
<path fill-rule="evenodd" clip-rule="evenodd" d="M30.6442 10.7812C30.7897 10.8515 30.8821 10.9987 30.8821 11.1603V17.7235C30.8821 17.885 30.7896 18.0323 30.6441 18.1026L25.0711 20.7934C24.9553 20.8494 24.8201 20.8492 24.7044 20.7931L21.9225 19.4439C21.8107 19.3896 21.6806 19.4711 21.6806 19.5954V27.6826C21.6806 27.8421 21.5906 27.9878 21.4479 28.0591L19.1639 29.2011C19.052 29.2571 18.9202 29.1757 18.9202 29.0505V11.1597C18.9202 10.9985 19.0123 10.8514 19.1574 10.781L24.7043 8.08899C24.8201 8.03278 24.9553 8.03266 25.0712 8.08867L30.6442 10.7812ZM25.0739 17.7265C24.958 17.7825 24.8228 17.7824 24.707 17.7262L21.9179 16.373C21.7728 16.3026 21.6806 16.1555 21.6806 15.9943V12.8877C21.6806 12.7265 21.7728 12.5794 21.9179 12.509L24.707 11.1558C24.8228 11.0996 24.958 11.0995 25.0739 11.1555L27.8838 12.5128C28.0292 12.583 28.1217 12.7303 28.1217 12.8918V15.9902C28.1217 16.1517 28.0292 16.299 27.8838 16.3692L25.0739 17.7265Z" fill="white"/>
</svg>

